# xmcd CD database file
#
# Track frame offsets:
#	150
#	18604
#	37249
#	58313
#	79120
#	90426
#	103402
#	123193
#	141201
#	163352
#	183375
#	212498
#
# Disc length: 2965 seconds
#
# Revision: 0
# Processed by: cddbd v1.5.1PL2 Copyright (c) Steve Scherf et al.
# Submitted via: CDex 1.51
#
DISCID=ae0b930c
DTITLE=JACKSON VIBE - GET ON THE BUS
DYEAR=2006
DGENRE=JPop
TTITLE0=LIVE SHOW …thank you for boarding…
TTITLE1=バスにとびのれ
TTITLE2=未来少年
TTITLE3=サンセット　ララバイ
TTITLE4=感電スル
TTITLE5=SUPER Y
TTITLE6=スペーストラベル 707
TTITLE7=九月のルビー
TTITLE8=恋の作法
TTITLE9=さよならヒーロー
TTITLE10=MUSIC FREAKS
TTITLE11=(I want to) get on the bus 〜LIVE SHOW (reprise)
EXTD=YEAR: 2006
EXTT0=
EXTT1=
EXTT2=
EXTT3=
EXTT4=
EXTT5=
EXTT6=
EXTT7=
EXTT8=
EXTT9=
EXTT10=
EXTT11=
PLAYORDER=
